# xmcd CD database file
# Copyright (C) 1996 Ti Kan
#
# Track frame offsets:
#  150
#  24892
#  37734
#  50237
#  82378
#  100487
#  122646
#  140087
#  159228
#  175964
#  192326
#  215523
#  231801
#  242183
#
# Disc length: 3379 seconds
#
# Revision: 1
# Processed by: cddbd v1.4b41PL1 Copyright (c) Steve Scherf et al.
# Submitted via: CDWizzard Release:4.13
#
DISCID=c50d310e
DTITLE=R+B Ravers - Nightwalk
DYEAR=1900
DGENRE=
TTITLE0=Dig that stuff ! (part1)
TTITLE1=Rompin' and stompin'
TTITLE2=Cry hard luck
TTITLE3=I called it love
TTITLE4=Come on baby
TTITLE5=Stripped me naked
TTITLE6=Down boy
TTITLE7=Chicken shack boogie
TTITLE8=Wild about you
TTITLE9=Nightwalk
TTITLE10=I've had my fun
TTITLE11=On the road
TTITLE12=Rockin' pneumonia
TTITLE13=Dildo boogie
EXTD=
EXTT0=
EXTT1=
EXTT2=
EXTT3=
EXTT4=
EXTT5=C. Santana/J. Lee Hooker
EXTT6=
EXTT7=
EXTT8=
EXTT9=
EXTT10=
EXTT11=
EXTT12=
EXTT13=
PLAYORDER=
